<svg width="44" height="44" viewBox="0 0 44 44" fill="none" xmlns="http://www.w3.org/2000/svg">
<path d="M2.02525 2L42 41.9748M14.7172 3.37913C18.3362 1.96567 22.2886 1.63759 26.0911 2.43501C29.8936 3.23244 33.3812 5.1208 36.1274 7.86911C38.8736 10.6174 40.7593 14.1065 41.5538 17.9096C42.3483 21.7127 42.0171 25.6649 40.6009 29.2828M36.1637 36.1384C34.3053 37.9968 32.0992 39.4709 29.6711 40.4766C27.2431 41.4824 24.6407 42 22.0126 42C19.3845 42 16.7822 41.4824 14.3541 40.4766C11.9261 39.4709 9.71991 37.9968 7.86156 36.1384C6.00322 34.2801 4.5291 32.0739 3.52337 29.6459C2.51764 27.2178 2 24.6155 2 21.9874C2 19.3593 2.51764 16.7569 3.52337 14.3289C4.5291 11.9008 6.00322 9.69466 7.86156 7.83631" stroke="#BBF451" stroke-width="3" stroke-linecap="round" stroke-linejoin="round"/>
</svg>



