<svg width="1565" height="907" viewBox="0 0 1565 907" fill="none" xmlns="http://www.w3.org/2000/svg">
<g opacity="0.07">
<path d="M-5.02145e-05 359.386C-5.1216e-05 336.474 0.632574 313.511 1.89845 290.507C11.1512 122.401 53.797 -39.1984 128.652 -189.804C150.264 -233.042 159.349 -283.05 155.66 -338.428L155.613 -339.137L157.577 -339.046C231.077 -335.625 300.502 -332.395 372.781 -342.484C418.195 -348.727 464.778 -357.466 509.827 -365.919C597.465 -382.363 688.088 -399.367 775.673 -399.157C874.04 -398.919 957.688 -376.477 1031.39 -330.546C1243.55 -197.652 1426.52 -138.578 1607.22 -144.637C1691.7 -148.213 1739.21 -153.772 1739.69 -153.828L1740.5 -153.924L1740.39 -153.113C1728.18 -61.983 1700.14 22.2757 1670.46 111.483C1659.95 143.068 1649.08 175.729 1639.09 208.424C1606.74 309.124 1631.91 409.532 1656.25 506.634C1666.31 546.761 1676.71 588.255 1683.1 629.6C1714.37 827.125 1680.96 1005.8 1634.03 1218.86C1630.9 1232.61 1629.86 1247.37 1628.85 1261.64C1627.1 1286.3 1625.44 1309.6 1613.62 1325.73C1605.3 1337.61 1583.56 1338.84 1560.55 1340.15C1550.34 1340.73 1539.78 1341.33 1530.3 1342.91C1510 1345.45 1490.66 1349.74 1471.96 1353.9C1453.23 1358.07 1433.86 1362.37 1413.53 1364.91C1302.6 1382.91 1201.59 1406.29 1094.65 1431.05C1023.04 1447.62 948.988 1464.77 872.132 1480C709.449 1512.86 520.864 1534.13 355.641 1442.7C274.733 1398.1 190.698 1348.94 130.441 1281.77C51.4803 1192.25 63.4674 1070.41 75.0555 952.59C78.3543 919.055 81.7653 884.38 82.9023 851.406C84.8126 824.579 82.0634 801.971 74.4836 782.259C24.9724 645.325 0.000575697 503.385 -5.02145e-05 359.386ZM157.729 -314.736C157.729 -268.521 148.363 -226.4 129.788 -189.238C-19.2875 110.694 -39.0112 464.63 75.6732 781.815C83.3162 801.692 86.0933 824.481 84.1694 851.473C83.0324 884.463 79.6196 919.161 76.3195 952.714C64.7543 1070.27 52.7976 1191.83 131.389 1280.93C191.51 1347.94 275.441 1397.04 356.255 1441.59C521.118 1532.82 709.424 1511.58 871.884 1478.76C948.721 1463.53 1022.76 1446.39 1094.37 1429.81C1201.33 1405.05 1302.36 1381.66 1413.35 1363.66C1433.65 1361.12 1452.98 1356.82 1471.69 1352.66C1490.42 1348.5 1509.79 1344.19 1530.12 1341.65C1539.64 1340.06 1550.23 1339.46 1560.48 1338.88C1583.18 1337.59 1604.62 1336.38 1612.59 1324.99C1624.2 1309.14 1625.84 1286.03 1627.58 1261.55C1628.6 1247.23 1629.65 1232.42 1632.79 1218.58C1679.69 1005.66 1713.08 827.107 1681.85 629.796C1675.46 588.508 1665.07 547.043 1655.02 506.943C1630.63 409.669 1605.42 309.082 1637.88 208.046C1647.87 175.344 1658.74 142.676 1669.25 111.082C1698.83 22.1951 1726.77 -61.7685 1739.02 -152.474C1732.41 -151.729 1685.8 -146.692 1607.27 -143.368C1508.85 -140.068 1411.32 -155.738 1309.09 -191.272C1221.79 -221.613 1130.74 -266.818 1030.72 -329.469C866.816 -431.61 685.453 -397.58 510.062 -364.671C464.997 -356.216 418.4 -347.472 372.956 -341.225C300.562 -331.12 231.079 -334.354 157.519 -337.777L156.974 -337.803C157.476 -330.01 157.729 -322.313 157.729 -314.736Z" fill="#BBF451"/>
<path d="M52.2822 384.4C52.2816 342.749 54.0977 300.851 57.7361 258.751C71.6849 97.3385 112.049 -63.8153 177.704 -220.234C191.137 -253.08 196.578 -291.372 194.346 -337.309L195.613 -337.37C197.861 -291.246 192.382 -252.775 178.877 -219.747C43.0548 103.834 16.7366 439.648 102.76 751.395C114.215 795.596 116.496 841.811 109.544 888.756C89.5349 1027.21 75.7806 1172.98 144.873 1299.65L143.759 1300.26C74.4775 1173.25 88.2473 1027.24 108.289 888.573C115.217 841.789 112.943 795.747 101.535 751.723C68.7591 632.947 52.2834 509.846 52.2822 384.4Z" fill="#BBF451"/>
<path d="M105.062 404.219C105.062 193.876 140.039 -13.8879 209.837 -216.81C224.037 -257.647 226.821 -300.383 227.673 -336.802L228.942 -336.772C228.087 -300.255 225.292 -257.396 211.036 -216.396C101.791 101.208 77.8885 430.824 139.997 763.295C146.954 792.865 144.924 822.351 141.696 849.808C140.35 858.153 138.991 866.48 137.63 874.813C113.493 1022.6 88.536 1175.42 166.113 1311.52L165.011 1312.15C87.2082 1175.66 112.204 1022.62 136.378 874.608C137.739 866.275 139.098 857.949 140.439 849.633C143.65 822.319 145.672 792.965 138.756 763.556C116.287 643.276 105.062 523.315 105.062 404.219Z" fill="#BBF451"/>
<path d="M131.78 1110.1C131.78 1106.76 131.81 1103.41 131.868 1100.03C133.213 1022.63 149.508 942.03 165.266 864.087C167.724 851.931 170.183 839.769 172.59 827.608C177.713 803.698 179.321 781.7 177.656 758.38C176.233 738.462 172.348 718.192 168.591 698.589C163.414 671.576 158.063 643.624 159.042 616.134C160.325 572.522 161.233 528.13 162.112 485.2C167.034 244.709 172.125 -3.97046 245.361 -243.869C253.503 -273.193 255.351 -303.174 256.781 -336.51L258.049 -336.455C256.615 -303.04 254.763 -272.983 246.58 -243.514C173.39 -3.76782 168.302 244.821 163.381 485.226C162.502 528.159 161.593 572.553 160.311 616.175C159.328 643.541 164.673 671.407 169.838 698.351C173.602 717.99 177.494 738.297 178.921 758.289C180.597 781.737 178.978 803.842 173.833 827.864C171.427 840.018 168.968 852.181 166.51 864.339C135.077 1019.82 102.571 1180.59 187.58 1324.92L186.486 1325.56C149.715 1263.14 131.783 1192.55 131.78 1110.1Z" fill="#BBF451"/>
<path d="M154.331 1131.01C154.331 1125.79 154.408 1120.54 154.561 1115.22C156.779 1038.34 174.47 958.618 191.579 881.526C199.073 847.756 206.823 812.837 213.196 778.529C220.394 742.535 216.002 706.845 211.755 672.33C208.018 641.948 204.156 610.536 208.114 578.84C219.436 466.611 222.031 353.807 224.541 244.716C226.155 174.579 227.824 102.055 231.798 30.4808C237.365 -71.6025 255.456 -166.32 272.419 -245.51C279.041 -275.318 282.553 -305.931 282.86 -336.507L284.129 -336.493C283.821 -305.83 280.298 -275.128 273.659 -245.239C256.707 -166.102 238.626 -71.4457 233.065 30.5515C229.092 102.104 227.424 174.619 225.809 244.745C223.299 353.86 220.703 466.69 209.375 578.982C205.432 610.536 209.286 641.871 213.014 672.174C217.272 706.791 221.676 742.584 214.442 778.77C208.066 813.091 200.314 848.02 192.817 881.801C158.69 1035.57 123.401 1194.58 209.65 1339.91L208.559 1340.56C172.131 1279.18 154.333 1210.48 154.331 1131.01Z" fill="#BBF451"/>
<path d="M176.429 1136.65C176.428 1123.39 176.903 1109.88 177.851 1096.11C183.212 1018.14 204.193 931.392 241.99 830.893C249.479 811.415 255.002 788.761 258.877 761.63C262.253 734.617 260.535 707.114 258.871 680.515C257.205 653.857 255.484 626.292 258.876 599.152C281.592 424.449 279.233 249.716 276.955 80.7322C276.516 48.2248 276.063 14.6117 275.791 -18.5632C274.821 -79.8514 283.486 -141.62 291.87 -201.355C298.087 -245.656 304.515 -291.466 306.99 -336.845L308.258 -336.776C305.779 -291.343 299.347 -245.506 293.126 -201.179C284.751 -141.492 276.095 -79.7913 277.06 -18.578C277.332 14.5975 277.786 48.21 278.224 80.7148C280.504 249.743 282.861 424.523 260.135 599.312C256.757 626.331 258.477 653.836 260.138 680.435C261.803 707.092 263.526 734.659 260.135 761.799C256.245 789.037 250.699 811.782 243.178 831.344C190.587 971.17 132.299 1177.76 232.854 1356.66L231.749 1357.28C194.656 1291.29 176.431 1218.77 176.429 1136.65Z" fill="#BBF451"/>
<path d="M202.083 1157.71C202.083 1137.44 203.232 1116.64 205.521 1095.24C214.332 1012.92 240.655 921.459 285.993 815.631C295.707 794.255 301.381 774.393 302.865 756.588C305.247 723.216 307.396 689.443 309.473 656.782C314.754 573.77 320.214 487.931 329.939 402.815C335.467 365.935 334.751 331.692 333.319 303.055C331.87 242.19 328.436 180.309 325.115 120.464C316.792 -29.5088 308.186 -184.59 330.004 -337.539L331.26 -337.359C309.46 -184.534 318.062 -29.5175 326.382 120.394C329.704 180.248 333.139 242.139 334.588 303.009C336.02 331.69 336.74 366.012 331.197 402.982C321.479 488.044 316.02 573.866 310.74 656.862C308.663 689.526 306.513 723.302 304.13 756.686C302.634 774.644 296.923 794.646 287.155 816.144C223.633 964.414 151.488 1183.71 257.933 1375.35L256.825 1375.97C220.168 1309.97 202.084 1238.11 202.083 1157.71Z" fill="#BBF451"/>
<path d="M236.77 1193.57C236.77 1168.56 238.508 1142.64 241.972 1115.7C254.216 1020.46 285.816 925.118 316.373 832.917C318.659 826.022 320.936 819.149 323.199 812.298C423.865 506.888 385.297 187.212 348 -121.94L345.168 -145.438C339.031 -193.307 343.641 -240.231 348.1 -285.609C349.8 -302.915 351.557 -320.811 352.703 -338.55L353.969 -338.469C352.823 -320.708 351.063 -302.802 349.362 -285.485C344.911 -240.178 340.309 -193.328 346.427 -145.595L349.26 -122.092C367.941 32.7522 387.258 192.869 388.885 348.918C390.714 523.828 369.615 675.529 324.404 812.695C322.141 819.547 319.863 826.421 317.577 833.315C255.339 1021.11 190.98 1215.29 285.386 1395.87L284.262 1396.46C252.493 1335.69 236.773 1268.79 236.77 1193.57Z" fill="#BBF451"/>
<path d="M272.904 1219.6C272.9 1094.51 314.373 968.782 357.046 854.59C460.821 575.779 466.554 272.077 375.634 -130.14C362.039 -193.608 362.011 -260.409 375.548 -340.373L376.799 -340.161C363.289 -260.36 363.313 -193.712 376.873 -130.413C419.143 56.5837 439.973 220.025 440.548 369.246C441.24 545.469 414.304 704.396 358.235 855.034C292.749 1030.27 230.089 1232.74 316.124 1418L314.972 1418.54C284.854 1353.68 272.906 1286.73 272.904 1219.6Z" fill="#BBF451"/>
<path d="M313.312 1251.06C313.312 1247.51 313.346 1243.96 313.413 1240.39C314.645 1175.4 327.046 1107.11 350.27 1037.41C413.497 842.922 474.678 631.841 494.061 406.218C506.684 258.495 470.767 122.873 432.746 -20.7156C420.134 -68.3433 407.093 -117.593 395.938 -167.38C385.062 -223.325 386.067 -279.207 399.096 -343.26L400.339 -343.007C387.347 -279.122 386.342 -223.397 397.18 -167.639C408.326 -117.894 421.364 -68.657 433.973 -21.0418C472.025 122.657 507.963 258.389 495.326 406.326C475.931 632.079 414.727 843.244 351.476 1037.81C302.569 1184.58 302.495 1324 351.262 1440.99L350.091 1441.47C325.67 1382.89 313.312 1318.88 313.312 1251.06Z" fill="#BBF451"/>
<path d="M368.51 1304.82C368.507 1198.52 395.581 1093.25 423.699 983.912C436.505 934.115 449.747 882.622 460.231 830.988C472.118 777.476 483.852 725.82 495.196 675.867C509.638 612.286 524.57 546.539 539.757 477.226C577.866 296.879 520.773 129.683 465.561 -32.0098C457.06 -56.908 448.268 -82.6534 439.945 -108.08C412.536 -192.165 407.274 -272.726 424.306 -347.53L425.544 -347.247C408.564 -272.672 413.815 -192.338 441.152 -108.475C449.472 -83.057 458.262 -57.314 466.762 -32.4202C494.435 48.626 523.051 132.429 539.335 216.666C557.589 311.088 558.132 396.403 540.997 477.493C525.808 546.815 510.876 612.564 496.434 676.148C485.088 726.101 473.356 777.753 461.472 831.252C450.983 882.906 437.738 934.415 424.928 984.227C382.961 1147.43 343.319 1301.58 392.709 1463.43L391.494 1463.8C375.125 1410.15 368.511 1357.36 368.51 1304.82Z" fill="#BBF451"/>
<path d="M429.431 1340.63C429.428 1211.17 459.845 1083.36 491.552 950.118C495.223 934.692 498.9 919.239 502.535 903.753C508.713 875.941 512.472 848.005 514.363 815.845C515.481 802.99 516.24 790.153 516.973 777.738C518.453 752.694 519.983 726.796 524.523 700.676C533.191 657.325 546.191 615.641 558.765 575.328C578.726 511.327 597.581 450.874 600.655 384.24C608.037 244.984 557.884 114.826 509.373 -11.0491C491.232 -58.12 472.474 -106.794 456.865 -155.475C436.725 -214.363 434.937 -278.91 451.394 -352.788L452.633 -352.511C436.225 -278.867 438.004 -214.546 458.069 -155.875C473.671 -107.216 492.423 -58.559 510.558 -11.5046C559.116 114.493 609.329 244.773 601.923 384.304C598.842 451.096 579.963 511.624 559.976 575.707C547.413 615.987 534.422 657.639 525.771 700.91C521.246 726.942 519.718 752.803 518.24 777.813C517.506 790.236 516.747 803.081 515.629 815.936C513.736 848.148 509.967 876.148 503.773 904.035C500.136 919.529 496.459 934.983 492.787 950.411C449.563 1132.06 408.739 1303.63 444.202 1482.88L442.958 1483.13C433.472 1435.19 429.433 1387.79 429.431 1340.63Z" fill="#BBF451"/>
<path d="M471.584 -277.576C471.584 -304.334 474.453 -331.454 480.966 -359.01L482.2 -358.718C450.838 -225.986 504.284 -102.958 555.975 16.0187C577.408 65.3496 599.57 116.36 615.429 167.429C634.232 229.496 644.41 285.19 646.548 337.698C649.029 398.532 640.26 455.852 620.493 508.054L617.994 514.836C594.777 577.819 572.847 637.309 564.693 702.557C560.186 736.83 559.513 771.689 558.862 805.4C558.293 834.927 557.704 865.459 554.543 895.5C549.033 955.122 540.579 1015.22 532.402 1073.33C513.042 1210.93 493.025 1353.21 511.673 1495.89L510.414 1496.06C491.744 1353.21 511.773 1210.84 531.145 1073.15C539.319 1015.05 547.772 954.975 553.279 895.376C556.436 865.379 557.024 834.875 557.594 805.376C558.244 771.629 558.918 736.734 563.435 702.395C571.604 637.006 593.559 577.45 616.803 514.396L619.304 507.61C655.885 411.005 654.218 299.853 614.216 167.801C598.378 116.803 576.23 65.8243 554.81 16.5238C513.753 -77.979 471.584 -175.046 471.584 -277.576Z" fill="#BBF451"/>
<path d="M503.9 -266.219C503.9 -302.737 509.013 -337.62 513.973 -365.86L515.223 -365.641C508.583 -327.828 501.666 -278.073 507.166 -228.522C512.841 -177.428 532.004 -130.169 550.535 -84.4655C554.081 -75.7196 557.748 -66.6749 561.27 -57.7325C573.04 -27.6061 586.256 3.00891 599.035 32.6154C649.162 148.745 700.998 268.834 684.826 399.58C678.637 454.273 660.274 502.297 640.832 553.14C628.738 584.766 616.234 617.47 606.977 651.865C600.338 680.094 593.464 709.303 595.154 737.985C603.161 917.4 600.945 1102.34 588.386 1303.39C584.559 1353.14 586.528 1404.48 588.432 1454.13C589.049 1470.24 589.687 1486.9 590.112 1503.16L588.843 1503.2C588.419 1486.94 587.781 1470.29 587.164 1454.18C585.261 1404.49 583.292 1353.11 587.121 1303.3C599.678 1102.31 601.892 917.412 593.887 738.05C592.188 709.197 599.083 679.892 605.747 651.553C615.026 617.075 627.543 584.342 639.647 552.685C659.059 501.919 677.395 453.968 683.567 399.43C699.698 269.007 647.93 149.091 597.87 33.1169C585.086 3.50048 571.866 -27.1238 560.09 -57.2689C556.571 -66.2063 552.905 -75.246 549.36 -83.9894C530.797 -129.774 511.6 -177.116 505.907 -228.383C504.499 -241.048 503.9 -253.733 503.9 -266.219Z" fill="#BBF451"/>
<path d="M542.311 -293.683C542.311 -319.931 544.981 -346.49 551.139 -373.161L552.375 -372.874C523.01 -245.687 573.305 -120.826 613.721 -20.499C623.356 3.44775 633.882 27.7789 644.063 51.3092C693.287 165.08 744.191 282.723 720.352 413.157C711.859 460.949 693.693 504.954 676.125 547.508C665.602 572.998 654.721 599.355 645.884 626.508C629.275 681.339 612.094 738.052 623.907 797.138C677.653 1045.15 677.762 1282.62 673.27 1504.58L672.001 1504.55C676.494 1282.67 676.383 1045.29 622.665 797.398C610.787 737.99 628.013 681.123 644.673 626.126C653.53 598.915 664.42 572.535 674.952 547.024C692.494 504.531 710.634 460.592 719.104 412.933C742.867 282.876 692.047 165.411 642.898 51.8137C632.714 28.276 622.183 3.9375 612.544 -20.0242C580.525 -99.5089 542.311 -194.367 542.311 -293.683Z" fill="#BBF451"/>
<path d="M585.934 -301.794C585.934 -327.734 588.163 -353.981 593.125 -380.588L594.372 -380.355C567.006 -233.658 623.056 -97.4934 677.259 34.1853C698.549 85.9058 720.563 139.386 737.253 192.815C758.782 260.114 783.082 360.405 745.697 453.9C734.909 481.328 721.513 508.854 708.559 535.474C672.714 609.125 635.651 685.288 649.29 768.384C662.226 844.997 680.282 920.434 697.743 993.386C738.52 1163.75 777.031 1324.67 755.865 1499.95L754.604 1499.79C775.749 1324.74 737.257 1163.93 696.509 993.681C679.043 920.708 660.983 845.251 648.038 768.593C634.332 685.09 671.486 608.748 707.417 534.918C720.361 508.321 733.746 480.817 744.517 453.432C781.752 360.314 757.513 260.315 736.044 193.197C719.369 139.817 697.365 86.3624 676.085 34.6675C631.631 -73.3267 585.934 -184.343 585.934 -301.794Z" fill="#BBF451"/>
<path d="M637.035 -323.195C637.035 -344.56 638.271 -366.083 640.955 -387.832L642.214 -387.676C623.15 -233.191 677.27 -88.6685 729.608 51.0967C750.8 107.69 772.714 166.21 789.71 224.989C813.158 304.379 809.637 382.374 779.529 450.537C767.527 478.553 752.834 506.439 738.625 533.405C698.788 609.012 657.599 687.19 671.287 776.856C683.226 861.457 715.756 938.292 747.215 1012.6C769.381 1064.95 792.301 1119.09 808.323 1176.23C837.21 1279.92 845.46 1385.54 832.847 1490.16L831.586 1490C844.18 1385.56 835.942 1280.1 807.1 1176.58C791.1 1119.51 768.196 1065.41 746.045 1013.09C714.556 938.712 681.993 861.8 670.032 777.041C656.274 686.975 697.569 608.604 737.501 532.814C751.698 505.868 766.378 478.006 778.364 450.03C808.351 382.139 811.852 304.446 788.491 225.345C771.507 166.61 749.602 108.113 728.417 51.5424C683.389 -68.7085 637.035 -192.503 637.035 -323.195Z" fill="#BBF451"/>
<path d="M689.376 738.295C689.373 654.936 733.116 582.115 775.588 511.4C787.977 490.775 800.787 469.445 812.23 448.285C868.952 345.786 844.715 236.414 817.261 152.581C809.009 127.58 800.351 102.19 791.977 77.635C740.224 -74.1178 686.71 -231.034 695.733 -394L697 -393.931C687.992 -231.218 741.465 -74.4127 793.178 77.2253C801.553 101.783 810.213 127.176 818.468 152.184C837.011 208.808 846.569 257.727 847.687 301.739C849.067 356.477 837.844 404.622 813.345 448.895C801.89 470.075 789.074 491.416 776.678 512.054C728.424 592.396 678.524 675.469 693.285 773.471C708.462 872.16 753.719 960.027 797.486 1045C822.069 1092.73 847.489 1142.08 867.524 1193.1C902.193 1280.63 913.777 1378.88 901.027 1477.22L899.767 1477.05C912.491 1378.93 900.934 1280.9 866.343 1193.57C846.331 1142.61 820.926 1093.28 796.358 1045.58C752.544 960.518 707.239 872.557 692.03 773.664C690.22 761.658 689.376 749.872 689.376 738.295Z" fill="#BBF451"/>
<path d="M711.628 737.899C711.625 644.312 765.611 564.064 818.002 486.178C830.811 467.137 844.055 447.449 856.244 427.94C917.765 327.71 894.577 219.259 868.014 125.474C858.892 94.1424 849.187 62.5557 839.801 32.0089C795.406 -112.477 753.499 -248.946 755.939 -397.046L757.208 -397.025C754.739 -249.136 796.649 -112.75 841.014 31.6351C850.402 62.1875 860.108 93.7787 869.234 125.123C882.13 170.653 895.433 224.498 896.332 278.682C897.272 335.284 884.511 384.314 857.323 428.609C845.12 448.14 831.87 467.837 819.056 486.886C760.552 573.859 700.063 663.786 715.281 771.786C728.707 870.827 778.321 954.076 830.848 1042.21L831.947 1044.06C871.92 1110.12 909.92 1175.17 935.489 1244.41C964.367 1322.62 972.213 1394.25 959.477 1463.38L958.23 1463.15C985.386 1315.75 916.61 1186.44 830.858 1044.71L829.758 1042.87C777.162 954.613 727.484 871.255 714.025 771.96C712.396 760.406 711.629 749.055 711.628 737.899Z" fill="#BBF451"/>
<path d="M738.507 736.838C738.507 728.827 738.798 720.75 739.4 712.586C747.356 623.903 796.864 553.572 849.278 479.113C874.165 443.757 899.9 407.199 920.518 368.735C947.177 318.362 953.069 260.409 939.066 186.353C925.06 107.627 905.284 30.5666 886.161 -43.9575C855.73 -162.54 826.988 -274.547 818.571 -394.993L819.837 -395.083C828.246 -274.75 856.975 -162.798 887.39 -44.2725C906.52 30.2728 926.301 107.358 940.313 186.123C954.374 260.47 948.439 318.688 921.638 369.332C900.981 407.866 875.224 444.457 850.315 479.843C798.002 554.159 748.589 624.356 740.665 712.69C730.532 850.126 808.837 965.524 884.566 1077.13C922.475 1132.99 961.675 1190.76 989.333 1250.61C1013.77 1302.38 1020.23 1367.63 1009.07 1450.09L1007.81 1449.92C1018.94 1367.71 1012.51 1302.7 988.184 1251.15C960.568 1191.39 921.397 1133.66 883.516 1077.84C812.156 972.676 738.51 864.137 738.507 736.838Z" fill="#BBF451"/>
<path d="M762.804 734.071C762.801 625.948 827.319 541.424 895.478 452.121C916.522 424.55 938.281 396.04 957.774 366.99C1010.07 290.257 1002.46 205.544 986.443 125.427C973.586 61.121 958.579 -1.62391 944.065 -62.304C917.747 -172.338 892.889 -276.27 880.086 -387.677L881.347 -387.822C894.14 -276.49 918.991 -172.595 945.299 -62.5989C959.815 -1.90821 974.826 60.8489 987.686 125.177C1003.76 205.565 1011.38 290.583 958.825 367.701C939.312 396.78 917.541 425.305 896.487 452.891C825.88 545.401 759.189 632.779 764.355 746.457C769.808 877.389 845.735 981.579 926.118 1091.89C944.847 1117.59 964.216 1144.17 982.513 1170.97C1040.58 1254.68 1063.77 1344.59 1051.42 1438.19L1050.16 1438.03C1062.46 1344.75 1039.35 1255.14 981.467 1171.69C963.179 1144.9 943.816 1118.33 925.092 1092.64C844.592 982.167 768.556 877.825 763.087 746.512C762.897 742.333 762.804 738.181 762.804 734.071Z" fill="#BBF451"/>
<path d="M791.084 746.149C791.084 733.243 791.907 720.368 793.546 707.476C806.49 597.416 872.235 514.792 941.84 427.316C962.953 400.783 984.786 373.344 1005.16 344.969C1048.92 282.229 1059.4 202.667 1037.2 101.742C1026.38 53.9994 1014.57 6.88122 1003.14 -38.6854C974.563 -152.673 947.568 -260.338 935.301 -375.539L936.564 -375.673C948.821 -260.561 975.806 -152.937 1004.37 -38.994C1015.8 6.58007 1027.61 53.7043 1038.44 101.465C1060.72 202.761 1050.17 282.65 1006.2 345.704C985.799 374.111 963.957 401.561 942.834 428.107C873.344 515.437 807.708 597.924 794.807 707.631C776.381 852.479 865.631 969.178 951.948 1082.02C976.572 1114.22 1002.03 1147.51 1024.81 1181.13C1078.76 1259.46 1100.7 1344.8 1088.24 1427.91L1086.99 1427.72C1099.39 1344.94 1077.53 1259.91 1023.77 1181.84C1001 1148.25 975.553 1114.97 950.939 1082.8C907.611 1026.15 862.807 967.575 832.196 906.381C804.665 851.344 791.086 798.567 791.084 746.149Z" fill="#BBF451"/>
<path d="M823.32 744.972C823.32 738.129 823.548 731.288 823.999 724.44C831.843 589.478 922.092 482.295 1009.37 378.64C1016.45 370.225 1023.53 361.815 1030.57 353.396C1082.43 293.408 1102.12 209.705 1084.58 123.737C1072.07 61.8058 1057.1 1.56945 1042.62 -56.6827C1017.23 -158.821 993.255 -255.296 981.792 -359.026L983.052 -359.165C994.506 -255.519 1018.47 -159.085 1043.85 -56.9889C1058.33 1.27697 1073.31 61.5268 1085.82 123.483C1103.44 209.838 1083.65 293.937 1031.54 354.217C1024.51 362.63 1017.43 371.041 1010.34 379.458C923.195 482.953 833.085 589.973 825.266 724.518C816.065 863.987 903.034 975.227 987.147 1082.8C1011.25 1113.63 1036.17 1145.5 1058.65 1177.74C1110.08 1249.11 1131.67 1332.63 1121.06 1419.26L1119.81 1419.11C1130.37 1332.79 1108.86 1249.58 1057.61 1178.47C1035.15 1146.26 1010.24 1114.4 986.148 1083.59C943.925 1029.58 900.264 973.743 869.341 915.239C838.462 856.819 823.322 800.901 823.32 744.972Z" fill="#BBF451"/>
<path d="M860.954 741.728C860.951 610.807 947.554 497.791 1031.79 387.863C1050.67 363.213 1070.2 337.726 1088.07 312.81C1124.02 259.716 1136.86 199.011 1125.19 137.269C1112.5 72.4603 1097.26 9.03002 1082.52 -52.3128C1059.19 -149.407 1037.16 -241.116 1024.12 -338.564L1025.38 -338.733C1038.41 -241.348 1060.43 -149.671 1083.75 -52.6096C1098.49 8.74547 1113.74 72.1897 1126.43 137.028C1138.17 199.111 1125.27 260.143 1089.11 313.536C1071.22 338.482 1051.69 363.978 1032.79 388.634C931.167 521.264 826.084 658.411 874.312 825.861C904.877 929.349 965.795 1008.99 1030.29 1093.31C1057.93 1129.45 1086.52 1166.83 1112.8 1206.52C1146.98 1261.53 1159.85 1330.68 1151.05 1412.09L1149.79 1411.95C1158.56 1330.83 1145.75 1261.95 1111.74 1207.21C1085.49 1167.56 1056.91 1130.21 1029.28 1094.08C964.713 1009.67 903.727 929.935 873.094 826.218C864.73 797.187 860.954 769.064 860.954 741.728Z" fill="#BBF451"/>
<path d="M913.342 753.703C913.34 682.477 931.946 610.356 970 533.782C1008.57 456.172 1062.46 383.649 1110.08 322.944C1194.56 213.209 1158.79 89.9794 1124.2 -29.1886C1112.46 -69.6329 1100.32 -111.453 1093.04 -152.172C1090.82 -164.356 1088.61 -176.381 1086.41 -188.298C1078.45 -231.511 1070.94 -272.326 1064.5 -314.696L1065.75 -314.887C1072.19 -272.537 1079.7 -231.73 1087.66 -188.527C1089.86 -176.61 1092.07 -164.584 1094.29 -152.397C1101.56 -111.743 1113.69 -69.9546 1125.42 -29.5432C1142.75 30.1601 1160.67 91.8945 1163.3 151.225C1166.24 217.825 1149.17 274.255 1111.08 323.725C1012.53 449.341 908.012 597.802 914.944 770.157C920.346 895.793 993.636 992.838 1071.23 1095.58C1090.14 1120.62 1109.69 1146.5 1128.02 1172.66C1173.86 1239.07 1191.54 1319.8 1179.15 1406.11L1177.89 1405.93C1190.24 1319.94 1172.64 1239.53 1126.98 1173.38C1108.66 1147.25 1089.12 1121.37 1070.22 1096.35C992.5 993.44 919.095 896.242 913.676 770.21C913.453 764.716 913.342 759.207 913.342 753.703Z" fill="#BBF451"/>
<path d="M980.183 749.189C980.182 680.978 992.55 611.844 1017.13 542.948C1044.87 465.23 1089.23 384.951 1148.99 304.338C1187.44 251.448 1201.82 182.49 1189.48 110.174C1178.69 51.1831 1164.69 -5.99635 1151.15 -61.2931C1132.26 -138.46 1114.41 -211.347 1104.41 -289.088L1105.67 -289.249C1115.66 -211.58 1133.5 -138.726 1152.38 -61.5951C1165.93 -6.28089 1179.93 50.917 1190.73 109.953C1203.13 182.614 1188.67 251.913 1150.01 305.09C1021.82 478.01 967.624 641.749 984.312 805.661C996.005 925.557 1061.66 1019.58 1131.18 1119.13C1141.82 1134.37 1152.82 1150.12 1163.56 1165.89C1206.6 1232.01 1221 1311.16 1206.35 1401.16L1205.1 1400.96C1219.69 1311.29 1205.36 1232.43 1162.5 1166.6C1151.78 1150.85 1140.77 1135.09 1130.14 1119.86C1060.52 1020.17 994.774 926.012 983.049 805.787C981.137 787.014 980.183 768.132 980.183 749.189Z" fill="#BBF451"/>
<path d="M1057.14 706.774C1057.14 638.165 1066.58 570.047 1085.28 503.927C1106.59 428.542 1139.98 355.706 1184.5 287.444C1220.08 232.431 1230.87 168.237 1216.55 96.6522C1206.96 42.0199 1195.31 -10.9298 1184.04 -62.137C1169 -130.509 1154.79 -195.088 1144.93 -263.717L1146.19 -263.897C1156.03 -195.315 1170.24 -130.757 1185.28 -62.4097C1196.55 -11.1901 1208.2 41.7738 1217.8 96.418C1232.18 168.323 1221.33 232.835 1185.56 288.136C1008.9 559.008 1016.49 887.774 1205.86 1167.59C1252.73 1236.25 1245.16 1318.51 1233.38 1396.88L1232.13 1396.69C1243.86 1318.56 1251.42 1236.58 1204.81 1168.3C1113.09 1032.78 1062.15 881.145 1057.49 729.791C1057.26 722.117 1057.14 714.436 1057.14 706.774Z" fill="#BBF451"/>
<path d="M1150.02 646.153C1150.01 492.01 1178.05 344.797 1233.51 208.002C1271.08 114.049 1244.49 13.7777 1218.77 -83.1919C1205.13 -134.648 1191.02 -187.856 1186.47 -239.823L1187.73 -239.934C1192.27 -188.076 1206.37 -134.921 1220 -83.5167C1245.77 13.6514 1272.41 114.129 1234.69 208.475C1117.23 498.192 1123.24 834.045 1251.61 1154.17C1286.25 1236.24 1274.72 1324.89 1260.8 1392.95L1259.56 1392.69C1273.44 1324.81 1284.94 1236.42 1250.43 1154.65C1188.75 1000.83 1155.15 842.227 1150.55 683.243C1150.2 670.844 1150.02 658.466 1150.02 646.153Z" fill="#BBF451"/>
<path d="M1218.51 474.94C1218.51 434.773 1220.01 394.426 1223.31 353.751C1226.14 319.797 1238.65 287.835 1250.74 256.926C1260.47 232.067 1270.52 206.36 1275.77 179.344C1291.23 88.8065 1272.42 2.35217 1254.24 -81.255C1244.54 -125.828 1234.51 -171.918 1229.68 -218.355L1230.94 -218.487C1235.77 -172.12 1245.79 -126.064 1255.48 -81.5251C1273.69 2.20044 1292.52 88.7723 1277.02 179.571C1271.75 206.715 1261.67 232.476 1251.92 257.388C1239.86 288.213 1227.39 320.087 1224.58 353.855C1206.33 578.455 1243.31 793.366 1282.45 1020.89C1290.24 1066.15 1298.29 1112.95 1305.79 1159.38C1319.8 1239.97 1304.31 1320.11 1288.7 1388.89L1287.46 1388.61C1303.05 1319.95 1318.51 1239.96 1304.54 1159.59C1297.04 1113.16 1288.99 1066.37 1281.2 1021.11C1249.13 834.69 1218.52 656.73 1218.51 474.94Z" fill="#BBF451"/>
<path d="M1260.32 357.343C1260.32 331.702 1263.92 306.518 1274.12 282.466C1328.71 158.607 1308.64 28.3643 1289.24 -97.5878C1284.07 -131.166 1278.72 -165.886 1274.95 -199.661L1276.22 -199.801C1279.97 -166.052 1285.32 -131.347 1290.49 -97.7805C1309.92 28.3518 1330.02 158.78 1275.29 282.969C1252.77 336.048 1262.66 394.908 1272.21 451.828L1273.64 460.332C1277.72 483.234 1281.86 506.105 1285.99 528.943C1311.62 670.524 1338.11 816.925 1348.4 959.34C1359.92 1118.68 1349.63 1257.73 1316.95 1384.45L1315.72 1384.14C1388.45 1102.17 1338.07 823.841 1284.75 529.17C1280.61 506.331 1276.47 483.458 1272.39 460.548L1270.96 452.038C1265.69 420.644 1260.32 388.655 1260.32 357.343Z" fill="#BBF451"/>
<path d="M1298.56 335.182C1298.56 322.832 1300.26 310.713 1304.57 299.414C1361.45 135.617 1344.35 -29.0381 1321.96 -183.65L1323.21 -183.831C1345.63 -29.0665 1362.74 135.762 1305.76 299.848C1291.72 336.71 1305.71 382.679 1315.92 416.244C1427.54 774.326 1437.47 1098.42 1345.43 1379.51L1344.22 1379.11C1436.18 1098.27 1426.25 774.445 1314.71 416.618C1307.56 393.11 1298.56 363.546 1298.56 335.182Z" fill="#BBF451"/>
<path d="M1334.18 304.085C1334.18 298.591 1334.9 293.004 1336.71 287.591C1399.1 126.044 1387.46 -42.0162 1370.36 -170.384L1371.61 -170.551C1388.74 -42.0336 1400.39 126.233 1337.9 288.021C1332.62 303.865 1336.83 321.375 1341.29 333.269C1406.64 513.954 1444.32 688.889 1453.28 853.221C1463.43 1039.47 1436.74 1214.71 1373.95 1374.07L1372.77 1373.6C1491.59 1072.05 1480.6 722.178 1340.1 333.707C1337.08 325.658 1334.18 315.06 1334.18 304.085Z" fill="#BBF451"/>
<path d="M1368.09 294.968C1368.09 289.358 1368.91 284.05 1370.55 279.127C1420.73 143.088 1437.13 -4.5885 1419.29 -159.814L1420.55 -159.96C1438.42 -4.53382 1421.99 143.339 1371.74 279.548C1366.16 296.322 1371.41 314.321 1376.8 326.463C1528.5 682.363 1537.66 1052.32 1402.57 1368.19L1401.41 1367.69C1536.35 1052.14 1527.2 682.539 1375.64 326.97C1370.62 315.679 1368.09 304.856 1368.09 294.968Z" fill="#BBF451"/>
<path d="M1401.96 282.481C1401.96 266.997 1405.03 252.121 1411.18 238.445C1471.19 109.551 1473.19 -31.1936 1467.22 -151.872L1468.49 -151.935C1474.46 -31.1024 1472.46 109.836 1412.33 238.973C1398.65 269.394 1400.45 305.873 1417.41 341.682C1494.09 502.602 1533.75 674.14 1535.31 851.528C1536.82 1025.32 1501.82 1197.07 1431.24 1362.01L1430.08 1361.51C1574.04 1025.04 1569.14 663.053 1416.26 342.227C1406.75 322.142 1401.96 301.837 1401.96 282.481Z" fill="#BBF451"/>
<path d="M1435.52 277.217C1435.52 272.508 1436.22 267.889 1438.26 263.81C1496.85 104.141 1520.24 -22.4076 1514.07 -146.437L1515.34 -146.5C1521.52 -22.2918 1498.1 104.41 1439.42 264.313C1435.03 273.112 1437.11 284.693 1438.78 294C1439.02 295.323 1439.25 296.607 1439.46 297.842C1453.18 343.31 1468.8 388.882 1483.9 432.952C1527.98 561.611 1573.56 694.651 1574.82 836.187C1574.82 992.856 1527.47 1142.35 1481.68 1286.93C1474.54 1309.46 1467.16 1332.75 1460.11 1355.64L1458.89 1355.26C1465.95 1332.37 1473.33 1309.08 1480.47 1286.55C1526.23 1142.06 1573.55 992.66 1573.55 836.193C1572.29 694.868 1526.74 561.928 1482.7 433.364C1467.59 389.282 1451.97 343.7 1438.22 298.13C1438 296.821 1437.77 295.542 1437.53 294.225C1436.59 288.982 1435.52 283.03 1435.52 277.217Z" fill="#BBF451"/>
<path d="M1470.32 277.16C1470.32 269.348 1471.34 261.493 1473.75 253.75C1519.2 124.095 1560.02 -3.83289 1560.33 -143.512L1561.6 -143.509C1561.28 -3.63196 1520.44 124.408 1474.96 254.149C1466.01 282.808 1476.58 313.279 1486.79 336.622C1551.32 490.498 1587.77 645.11 1595.13 796.175C1603.12 960.173 1576.34 1116.08 1515.55 1259.59C1504.49 1286.46 1495.68 1316.66 1489.38 1349.33L1488.13 1349.09C1494.45 1316.33 1503.28 1286.06 1514.38 1259.1C1663.02 908.182 1580.78 564.035 1485.62 337.122C1478.07 319.851 1470.32 298.69 1470.32 277.16Z" fill="#BBF451"/>
<path d="M1506.58 272.979C1506.58 268.25 1507.28 263.5 1509.31 258.767C1517.76 230.935 1526.88 202.925 1535.7 175.838C1570.37 69.3628 1603.11 -31.2094 1606.12 -142.877L1607.38 -142.842C1604.38 -30.9905 1571.6 69.6653 1536.9 176.231C1528.09 203.313 1518.97 231.316 1510.5 259.201C1506.32 268.971 1507.98 278.915 1509.58 288.533C1509.91 290.512 1510.24 292.492 1510.52 294.471C1524.06 355.042 1542.33 412.732 1559.99 468.522C1585.07 547.705 1608.75 622.496 1620.5 705.775C1647.95 896.496 1595.87 1077.2 1545.51 1251.95C1536.87 1281.93 1527.94 1312.92 1519.58 1343.4L1518.35 1343.06C1526.72 1312.57 1535.65 1281.58 1544.29 1251.6C1594.61 1076.98 1646.65 896.407 1619.25 705.952C1607.51 622.778 1583.84 548.035 1558.78 468.905C1541.11 413.089 1522.83 355.372 1509.27 294.699C1508.98 292.681 1508.66 290.711 1508.33 288.741C1507.46 283.56 1506.58 278.285 1506.58 272.979Z" fill="#BBF451"/>
<path d="M1545.96 286.623C1545.96 275.778 1547.12 264.869 1549.89 253.785C1561.74 203.216 1577.47 154.13 1592.68 106.66C1619.57 22.7324 1644.97 -56.5404 1651.36 -144.446L1652.63 -144.353C1646.23 -56.2968 1620.81 23.0455 1593.89 107.047C1578.69 154.494 1562.97 203.556 1551.12 254.083C1541.88 291.05 1550.83 326.219 1560.3 363.455C1561.19 366.945 1562.08 370.446 1562.96 373.959C1566.09 384.815 1569.22 395.629 1572.33 406.393C1601.43 506.902 1628.91 601.838 1644.19 705.769C1670.03 875.07 1628.1 1035.38 1587.54 1190.4C1574.93 1238.64 1561.88 1288.53 1551.03 1338.02L1549.79 1337.75C1560.65 1288.23 1573.7 1238.34 1586.32 1190.08C1626.84 1035.18 1668.73 875.002 1642.93 705.958C1627.67 602.108 1600.2 507.213 1571.11 406.745C1568 395.98 1564.87 385.166 1561.74 374.288C1560.85 370.754 1559.96 367.256 1559.07 363.767C1552.39 337.495 1545.96 312.243 1545.96 286.623Z" fill="#BBF451"/>
<path d="M71.4238 1060.12C106.728 1057.19 138.485 1051.99 171.367 1043.77C221.728 1030.22 273.346 1011.67 323.265 993.736C473.719 939.677 629.295 883.775 779.213 952.406C1028.05 1068.57 1353.52 1187.15 1664.2 1072.06L1664.64 1073.25C1527.08 1124.21 1379.8 1134.19 1214.38 1103.76C1086.09 1080.16 947.639 1032.43 778.679 953.558C629.237 885.145 473.909 940.956 323.694 994.931C273.751 1012.88 222.107 1031.43 171.685 1045C138.724 1053.24 106.903 1058.45 71.5292 1061.39L71.4238 1060.12Z" fill="#BBF451"/>
<path d="M72.6318 1028.8L76.2764 1028.25C99.6924 1024.74 121.809 1021.42 144.274 1015C185.673 1002.76 228.476 988.25 269.871 974.215C455.686 911.214 647.828 846.067 829.992 937.182C1035.89 1037.53 1349.03 1136.32 1671.51 1037.12L1671.89 1038.33C1538.43 1079.39 1394.64 1089.68 1244.51 1068.93C1108.29 1050.11 968.638 1006.16 829.43 938.321C647.734 847.44 455.847 912.5 270.277 975.417C228.872 989.457 186.056 1003.97 144.628 1016.22C122.079 1022.66 99.9217 1025.99 76.4648 1029.51L72.8196 1030.05L72.6318 1028.8Z" fill="#BBF451"/>
<path d="M74.9756 996.796C102.926 994.454 128.479 986.305 147.619 979.467C244.774 945.624 339.946 913.54 436.185 892.91C545.679 869.439 643.434 863.969 735.041 876.188C801.921 884.914 861.359 910.266 924.287 937.106C969.79 956.515 1016.84 976.582 1066.75 989.606C1280.9 1044.49 1486.65 1048.3 1678.28 1000.93L1678.58 1002.16C1486.74 1049.58 1280.79 1045.77 1066.43 990.836C1016.43 977.787 969.335 957.7 923.789 938.274C860.944 911.469 801.584 886.151 734.874 877.446C524.797 849.426 315.896 922.195 148.04 980.665C128.832 987.527 103.176 995.708 75.0803 998.062L74.9756 996.796Z" fill="#BBF451"/>
<path d="M78.0098 964.145C102.017 960.823 126.079 953.945 149.35 947.295C158.731 944.319 168.154 941.317 177.598 938.308C378.98 874.154 587.218 807.815 790.967 866.051C1056.81 942.468 1370.83 1013.81 1684.24 963.491L1684.45 964.743C1370.78 1015.1 1056.59 943.727 790.617 867.27C587.238 809.142 379.186 875.421 177.983 939.519C168.538 942.528 159.115 945.53 149.716 948.511C126.386 955.179 102.28 962.069 78.1833 965.404L78.0098 964.145Z" fill="#BBF451"/>
<path d="M81.083 931.648C113.488 923.442 146.433 914.696 178.295 906.238C368.736 855.687 565.66 803.414 767.199 833.873C817.041 841.46 867.356 849.511 916.014 857.298C1179.93 899.53 1429.2 939.421 1689.16 924.903L1689.23 926.17C1429.14 940.696 1179.8 900.796 915.814 858.552C867.158 850.765 816.845 842.714 767.008 835.128C565.73 804.708 368.935 856.947 178.619 907.466C146.755 915.925 113.806 924.67 81.394 932.879L81.083 931.648Z" fill="#BBF451"/>
<path d="M83.5371 901.503C117.443 897.804 147.275 892.297 174.734 884.667C348.535 837.8 534.604 811.438 760.309 801.707C791.843 800.689 823.869 805.236 854.84 809.633C875.457 812.56 896.777 815.588 917.734 816.941C1150.88 836.229 1361.96 854.511 1584.42 882.955C1623.57 888.55 1660.02 889.359 1692.74 885.361L1692.9 886.62C1660.06 890.632 1623.51 889.822 1584.25 884.213C1361.83 855.773 1150.76 837.494 917.641 818.206C896.647 816.851 875.303 813.82 854.661 810.89C823.744 806.5 791.774 801.961 760.357 802.975C534.754 812.702 348.772 839.049 175.069 885.891C147.547 893.538 117.65 899.058 83.6741 902.763L83.5371 901.503Z" fill="#BBF451"/>
<path d="M84.6992 874.031C122.29 871.114 159.277 867.79 198.458 859.27C336.663 824.269 472.722 810.486 592.765 798.326C612.374 796.296 632.32 793.131 651.611 790.07C680.578 785.474 710.531 780.721 740.011 779.704C1002.96 763.666 1283.33 754.245 1565.89 828.81C1603.82 839.434 1643.5 841.905 1681.87 844.294C1686.27 844.568 1690.67 844.842 1695.05 845.128L1694.97 846.394C1690.59 846.108 1686.19 845.835 1681.79 845.56C1643.35 843.168 1603.61 840.693 1565.56 830.034C1283.19 755.52 1002.93 764.937 740.071 780.971C710.652 781.987 680.737 786.733 651.809 791.323C632.501 794.387 612.538 797.555 592.893 799.588C472.893 811.744 336.883 825.522 198.748 860.506C159.468 869.048 122.433 872.376 84.7965 875.297L84.6992 874.031Z" fill="#BBF451"/>
<path d="M84.4756 849.954L84.5004 848.684C105.158 849.091 127.022 847.482 147.728 844.029C184.732 838.457 221.745 832.717 257.538 827.166C377.597 808.547 490.997 790.961 611.372 778.013C698.321 767.977 780.038 753.081 866.553 737.31C909.994 729.391 954.913 721.203 1000.5 713.699C1114.18 696.079 1226.62 698.769 1354.34 722.164C1408.42 732.069 1459.93 746.922 1509.74 761.285C1572.49 779.38 1631.76 796.47 1695.73 804.535L1695.57 805.795C1631.5 797.718 1572.19 780.614 1509.39 762.506C1459.61 748.151 1408.13 733.308 1354.11 723.413C1226.53 700.045 1114.23 697.357 1000.7 714.954C955.129 722.455 910.216 730.642 866.781 738.56C780.244 754.335 698.507 769.235 611.512 779.276C491.162 792.221 377.776 809.806 257.733 828.422C221.937 833.973 184.923 839.713 147.926 845.284C127.155 848.747 105.21 850.362 84.4756 849.954Z" fill="#BBF451"/>
<path d="M82.7666 825.721L82.9246 824.462C119.716 829.077 157.686 824.679 186.655 820.333C212.644 816.619 238.404 812.905 264.019 809.213C380.304 792.449 490.14 776.614 606.29 762.782C700.419 752.739 787.098 725.574 878.866 696.813C909.66 687.163 941.503 677.183 973.355 668.017C1194.76 603.275 1410.97 665.559 1611.64 742.509C1633.08 750.55 1655.76 755.441 1677.7 760.171C1683.46 761.411 1689.19 762.646 1694.86 763.929L1694.58 765.167C1688.91 763.885 1683.19 762.652 1677.44 761.413C1655.45 756.673 1632.72 751.772 1611.19 743.695C1410.73 666.824 1194.75 604.599 973.707 669.236C941.867 678.399 910.032 688.376 879.245 698.024C787.415 726.804 700.677 753.987 606.432 764.043C490.305 777.873 380.477 793.706 264.2 810.468C238.584 814.162 212.824 817.875 186.839 821.588C157.794 825.946 119.712 830.356 82.7666 825.721Z" fill="#BBF451"/>
<path d="M79.7363 801.662L79.8702 800.399C127.189 805.41 170.419 804.732 212.031 798.328C276.871 788.524 340.269 780.28 401.581 772.309C477.521 762.435 556.047 752.225 636.719 739.088C730.324 724.225 811.413 688.795 897.263 651.285C908.991 646.16 920.78 641.009 932.669 635.883C1038.23 590.514 1151.87 577.35 1280.08 595.639C1380.72 609.994 1488.23 643.22 1618.44 700.203C1642.94 710.709 1670.38 717.872 1692.43 723.627L1692.11 724.856C1670.02 719.089 1642.53 711.913 1617.93 701.368C1425.45 617.127 1173.67 533.688 933.171 637.05C921.285 642.175 909.498 647.325 897.77 652.448C811.844 689.992 730.684 725.453 636.919 740.341C556.231 753.482 477.694 763.693 401.745 773.568C340.44 781.539 277.047 789.781 212.223 799.583C170.502 806.004 127.164 806.684 79.7363 801.662Z" fill="#BBF451"/>
<path d="M75.1963 777.231L75.2954 775.964C274.445 791.525 467.298 751.335 671.473 708.782L672.223 708.626C750.451 691.614 817.279 658.613 888.032 623.675C921.558 607.12 956.222 590.002 991.894 574.947C1084.43 536.212 1185.17 528.091 1299.85 550.12C1401.34 569.616 1501.65 609.789 1598.66 648.64C1628.28 660.504 1658.91 672.771 1688.61 684.032L1688.16 685.219C1658.45 673.954 1627.81 661.684 1598.18 649.818C1401.74 571.144 1198.62 489.793 992.385 576.117C956.751 591.156 922.102 608.267 888.594 624.813C820.886 658.249 750.873 692.821 672.488 709.868L671.732 710.026C467.466 752.596 274.527 792.805 75.1963 777.231Z" fill="#BBF451"/>
<path d="M69.1074 751.983L69.2481 750.722C267.851 772.732 489.787 744.721 711.066 669.717C769.179 650.339 826.113 622.634 881.173 595.841C989.515 543.12 1101.55 488.604 1227.36 495.347C1341.9 502.434 1446.7 547.343 1548.04 590.774C1592.1 609.656 1637.67 629.18 1683.49 645.383L1683.07 646.579C1637.2 630.364 1591.62 610.83 1547.54 591.941C1446.3 548.553 1341.6 503.688 1227.29 496.614C1101.81 489.89 989.925 544.333 881.729 596.983C826.631 623.794 769.659 651.517 711.471 670.921C604.971 707.02 498.3 732.434 394.425 746.453C282.162 761.605 172.711 763.466 69.1074 751.983Z" fill="#BBF451"/>
<path d="M61.4395 725.209L61.6328 723.954C295.114 760.043 549.768 722.155 778.684 617.272C809.125 602.82 839.444 587.001 868.765 571.702C935.564 536.851 1004.64 500.812 1079.94 478.447C1246.4 428.227 1401.15 493.7 1550.8 557.018C1592.38 574.612 1635.38 592.805 1677.43 607.882L1677 609.077C1634.92 593.988 1591.9 575.788 1550.3 558.186C1400.86 494.957 1246.33 429.574 1080.31 479.662C1005.12 501.994 936.097 538.003 869.352 572.828C840.02 588.131 809.69 603.956 779.221 618.421C550.074 723.412 295.163 761.335 61.4395 725.209Z" fill="#BBF451"/>
<path d="M52.2676 696.735L52.5551 695.499C260.672 743.973 505.932 712.585 743.159 607.113C782.861 589.638 822.92 569.275 861.661 549.582C988.966 484.869 1120.61 417.953 1269.71 436.111C1369.51 447.857 1461.17 486.345 1549.82 523.569C1589.1 540.063 1629.72 557.118 1670.62 571.688L1670.2 572.885C1629.26 558.303 1588.62 541.241 1549.33 524.739C1460.76 487.55 1369.18 449.096 1269.55 437.371C1120.84 419.26 989.372 486.087 862.235 550.714C823.48 570.415 783.405 590.786 743.672 608.274C631.091 658.328 517.01 691.96 404.601 708.236C280.632 726.184 162.09 722.315 52.2676 696.735Z" fill="#BBF451"/>
<path d="M42.3262 667.204L42.6632 665.981C292.453 734.852 579.921 682.024 897.085 508.965C982.155 463.578 1095.6 411.012 1218.85 407.332C1327.47 403.864 1427.96 445.094 1525.13 484.965C1570.2 503.456 1616.8 522.576 1663.34 536.819L1662.97 538.032C1616.37 523.773 1569.74 504.641 1524.65 486.139C1427.6 446.319 1327.24 405.141 1218.89 408.6C1095.9 412.272 982.631 464.762 897.687 510.082C753.504 588.755 613.317 643.218 481.025 671.954C324.597 705.933 176.997 704.336 42.3262 667.204Z" fill="#BBF451"/>
<path d="M33.1562 638.809L33.5776 637.612C218.807 702.808 431.923 683.432 704.269 576.635C762.031 554.521 817.992 528.069 872.111 502.488C946.325 467.409 1023.07 431.135 1105.32 405.667C1265.38 356.934 1415.78 413.676 1561.24 468.55C1592.35 480.288 1624.53 492.427 1655.99 503.179L1655.58 504.381C1624.1 493.622 1591.91 481.48 1560.79 469.739C1415.54 414.94 1265.34 358.275 1105.69 406.881C1023.53 432.321 946.828 468.576 872.654 503.636C818.513 529.226 762.529 555.689 704.727 577.818C581.859 625.999 473.219 655.704 372.6 668.627C248.764 684.532 134.559 674.5 33.1562 638.809Z" fill="#BBF451"/>
<path d="M25.8564 612.615L26.2412 611.405C237.627 678.692 480.991 651.265 770.239 527.557C798.128 515.45 826.539 502.449 854.014 489.876C1004.91 420.825 1160.95 349.423 1334.02 375.178C1403.03 385.638 1467.33 408.765 1529.52 431.13C1568.1 445.005 1607.99 459.352 1648.71 470.587L1648.37 471.809C1607.6 460.563 1567.69 446.207 1529.09 432.325C1466.96 409.981 1402.71 386.875 1333.83 376.434C1161.13 350.734 1005.27 422.056 854.541 491.031C827.061 503.606 798.644 516.61 770.741 528.724C638.384 585.33 518.234 620.955 403.419 637.635C267.21 657.423 140.18 649.005 25.8564 612.615Z" fill="#BBF451"/>
<path d="M19.9609 587.381L20.3315 586.166C320.179 677.515 609.093 567.044 888.493 460.21C961.905 432.14 1037.82 403.114 1112.07 378.589C1274.31 323.985 1433.73 373.883 1587.9 422.138C1605.62 427.686 1623.95 433.423 1641.86 438.859L1641.49 440.074C1623.58 434.636 1605.25 428.898 1587.52 423.35C1433.54 375.156 1274.33 325.321 1112.48 379.794C1038.24 404.311 962.345 433.332 888.947 461.397C609.344 568.306 320.225 678.856 19.9609 587.381Z" fill="#BBF451"/>
<path d="M15.1797 562.019L15.5056 560.792C172.528 602.466 339.737 600.443 526.69 554.605C656.247 523.5 779.369 480.743 898.438 439.394C974.146 413.103 1052.43 385.917 1132.39 361.657C1291.33 313.336 1446.23 355.817 1596.04 396.899C1609.23 400.516 1622.4 404.131 1635.57 407.681L1635.24 408.908C1622.07 405.355 1608.89 401.741 1595.7 398.124C1446.07 357.089 1291.35 314.657 1132.76 362.872C1052.82 387.124 974.552 414.306 898.855 440.593C779.757 481.952 656.604 524.719 526.989 555.838C339.828 601.728 172.413 603.75 15.1797 562.019Z" fill="#BBF451"/>
<path d="M11.208 535.471L11.4645 534.228C325.392 599.107 633.508 503.804 931.48 411.641C998.96 390.769 1068.74 369.186 1137.48 349.807C1309.65 299.356 1479.88 340.476 1630.08 376.756L1629.78 377.989C1479.74 341.747 1309.68 300.669 1137.83 351.026C1069.1 370.404 999.327 391.984 931.854 412.855C782.832 458.947 628.738 506.609 475.756 533.664C304.139 564.015 152.184 564.606 11.208 535.471Z" fill="#BBF451"/>
<path d="M7.88769 506.555L8.05933 505.297C326.312 548.755 624.798 472.267 940.812 391.287C1029.74 368.5 1121.69 344.936 1213.66 324.408C1342.91 296.702 1467.65 318.372 1588.28 339.329C1600.68 341.481 1613.08 343.636 1625.51 345.743L1625.29 346.995C1612.87 344.889 1600.46 342.733 1588.07 340.579C1467.55 319.644 1342.93 297.995 1213.93 325.649C1121.99 346.172 1030.04 369.733 941.129 392.518C782.086 433.273 631.864 471.768 477.277 495.746C302.06 522.923 152.909 526.357 7.88769 506.555Z" fill="#BBF451"/>
<path d="M5.20996 474.004L5.25954 472.734C423.433 489.029 831.536 406.195 1210.26 314.256C1318.52 288.158 1425.34 298.389 1528.63 308.284C1559.39 311.229 1591.18 314.274 1622.49 316.305L1622.4 317.572C1591.08 315.54 1559.27 312.494 1528.51 309.547C1425.32 299.663 1318.61 289.442 1210.56 315.49C831.746 407.451 423.538 490.304 5.20996 474.004Z" fill="#BBF451"/>
<path d="M3.14844 436.167L3.25873 434.903C76.2974 441.287 149.799 433.983 218.823 425.953C376.641 404.653 533.886 396.168 685.953 387.962C739.578 385.067 795.027 382.076 849.972 378.558C930.312 373.2 1004.03 353.897 1082.07 333.461C1126.09 321.935 1171.61 310.015 1218.75 300.709C1318.8 281.18 1416.07 284.575 1510.15 287.859C1546.64 289.132 1584.37 290.448 1621.76 290.413L1621.76 291.682C1584.35 291.718 1546.6 290.401 1510.1 289.127C1416.1 285.846 1318.9 282.454 1218.99 301.954C1171.89 311.253 1126.4 323.168 1082.39 334.689C1004.29 355.141 930.518 374.459 850.056 379.824C795.102 383.342 739.649 386.335 686.023 389.229C533.98 397.433 376.761 405.918 218.983 427.213C149.881 435.251 76.3061 442.562 3.14844 436.167Z" fill="#BBF451"/>
<path d="M1.93066 389.985C85.4632 387.255 168.095 374.242 248.007 361.659C304.583 352.75 363.085 343.538 421.876 337.937C530.702 327.569 632.911 340.029 736.739 354.867C861.689 370.955 976.054 344.823 1097.13 317.158C1140.44 307.263 1185.22 297.031 1230.6 288.859C1325.96 271.953 1420.24 270.524 1511.42 269.141C1548.08 268.585 1585.98 268.011 1623.41 266.436L1623.47 267.704C1586.02 269.279 1548.1 269.855 1511.44 270.411C1420.31 271.793 1326.09 273.222 1230.82 290.11C1185.47 298.276 1140.71 308.505 1097.42 318.396C976.223 346.088 861.751 372.244 736.567 356.126C632.81 341.299 530.683 328.848 421.997 339.202C363.242 344.8 304.761 354.009 248.204 362.915C168.255 375.505 85.5821 388.523 1.97094 391.256L1.93066 389.985Z" fill="#BBF451"/>
<path d="M1.98437 335.836C53.7745 327.658 105.868 315.434 156.244 303.613C280.708 274.408 409.41 244.21 545.58 271.935C582.842 279.474 619.296 288.86 654.55 297.935C763.345 325.944 866.106 352.4 981.84 324.411C1188.78 274.663 1389.5 256.085 1627.23 243.493L1627.29 244.761C1389.64 257.349 1188.98 275.921 982.138 325.646C866.097 353.709 763.186 327.215 654.234 299.165C618.996 290.092 582.558 280.712 545.328 273.179C409.429 245.509 280.866 275.676 156.535 304.849C106.135 316.675 54.0192 328.903 2.18328 337.09L1.98437 335.836Z" fill="#BBF451"/>
<path d="M4.13965 271.32C33.0745 262.814 62.9178 253.168 91.7783 243.839C236.336 197.114 385.814 148.798 532.131 200.87C563.104 211.634 594.169 223.646 624.21 235.263C754.814 285.765 878.175 333.467 1024.15 300.713C1182.22 264.423 1338.6 249.651 1489.83 235.367C1536.42 230.967 1584.59 226.416 1632.35 221.291L1632.49 222.554C1584.72 227.68 1536.54 232.23 1489.95 236.631C1338.76 250.911 1182.42 265.678 1024.43 301.951C958.736 316.692 890.926 316.069 817.127 300.048C751.252 285.748 686.435 260.684 623.753 236.447C593.721 224.833 562.667 212.826 531.71 202.068C385.796 150.138 236.525 198.386 92.1687 245.047C63.3007 254.378 33.4488 264.027 4.49777 272.538L4.13965 271.32Z" fill="#BBF451"/>
<path d="M10.6416 195.987C20.6639 191.963 30.7525 187.874 40.9006 183.76C117.592 152.673 196.893 120.526 277.589 104.079C369.171 85.4122 448.565 90.5004 520.31 119.636C565.343 137.772 608.177 163.969 649.602 189.304C727.736 237.09 808.528 286.503 905.819 282.08C1060.06 275.695 1216.11 254.249 1367.02 233.51C1456.02 221.278 1548.06 208.629 1638.57 199.24L1638.7 200.503C1548.21 209.89 1456.19 222.538 1367.19 234.768C1216.25 255.511 1060.17 276.96 905.875 283.348C808.198 287.789 727.237 238.273 648.941 190.388C607.56 165.08 564.772 138.911 519.835 120.813C359.843 55.8429 190.652 124.427 41.3777 184.937C31.2271 189.052 21.1379 193.142 11.1144 197.167L10.6416 195.987Z" fill="#BBF451"/>
<path d="M23.957 113.001C34.8642 108.445 45.7707 103.833 56.6877 99.2162C146.41 61.2698 239.186 22.0329 338.971 12.9579C393.541 7.02481 446.945 16.8083 502.226 42.8712C551.619 66.1578 598.4 100.253 643.641 133.226C669.48 152.058 696.199 171.531 723.456 189.087C796.329 237.169 879.778 258.727 978.581 254.998C1203.22 243.08 1422.38 211.172 1645.8 176.721L1646 177.976C1422.54 212.431 1203.35 244.345 978.639 256.265C879.553 260.006 795.859 238.379 722.763 190.15C695.481 172.578 668.748 153.094 642.895 134.252C548.914 65.7562 460.145 1.05893 339.097 14.2212C239.498 23.2782 146.814 62.4766 57.1822 100.384C46.2626 105.002 35.3549 109.616 24.4459 114.172L23.957 113.001Z" fill="#BBF451"/>
<path d="M44.8184 28.9515C124.851 -6.61599 203.397 -39.6272 284.416 -52.7479C379.075 -68.0783 460.146 -52.6432 532.263 -5.5604C570.183 19.0161 604.844 47.1896 638.363 74.4345C712.375 134.595 782.282 191.417 880.572 207.611C1099.72 245.554 1315.51 209.346 1524.21 174.329C1566.78 167.186 1610.81 159.798 1654.18 153.155L1654.37 154.409C1611.01 161.052 1566.99 168.438 1524.41 175.581C1315.62 210.616 1099.72 246.843 880.36 208.864C781.743 192.615 711.71 135.689 637.563 75.4194C604.069 48.1949 569.435 20.0438 531.571 -4.49612C366.179 -112.475 180.738 -30.0625 45.3332 30.1113L44.8184 28.9515Z" fill="#BBF451"/>
<path d="M71.1377 -48.5637L72.3038 -48.9995C151.164 -78.4696 232.709 -108.943 318.663 -117.372C378.271 -122.502 437.075 -109.877 498.445 -78.7759C553.201 -51.0258 605.171 -11.3054 655.427 27.1065C674.319 41.5443 693.852 56.4744 713.333 70.624C967.567 258.733 1282.21 199.402 1559.82 147.055C1594.09 140.594 1629.52 133.913 1663.61 127.933L1663.83 129.182C1629.75 135.162 1594.32 141.842 1560.06 148.304C1417.6 175.165 1270.29 202.942 1125.68 200.666C961.55 198.083 826.425 155.88 712.583 71.6486C693.094 57.4927 673.553 42.5585 654.657 28.1157C549.957 -51.9071 451.063 -127.491 318.779 -116.108C232.997 -107.695 151.531 -77.251 72.7481 -47.8101L71.5813 -47.3742L71.1377 -48.5637Z" fill="#BBF451"/>
<path d="M98.1914 -113.768C184.795 -145.664 260.44 -161.992 329.451 -163.687C415.417 -165.797 492.762 -144.486 559.339 -100.343C584.839 -83.1328 609.863 -65.5785 634.064 -48.6031C744.2 28.6509 848.228 101.621 983.832 134.841C1223.88 193.579 1456.44 150.032 1674.06 100.394L1674.35 101.632C1567.22 126.066 1451.7 150.012 1332.73 159.712C1205.24 170.108 1091.02 162.375 983.53 136.074C847.695 102.796 743.573 29.761 633.337 -47.5642C609.139 -64.536 584.119 -82.0866 558.634 -99.2877C437.769 -179.424 291.598 -183.647 98.6301 -112.576L98.1914 -113.768Z" fill="#BBF451"/>
<path d="M122.221 -167.802C207.139 -191.415 281.722 -202.728 350.234 -202.387C433.654 -201.972 509.115 -183.594 574.521 -147.764C603.693 -131.209 632.764 -114.303 660.878 -97.9525C805.594 -13.793 942.283 65.7005 1107.36 109.454C1277.2 156.324 1445.98 120.426 1609.21 85.71C1634.22 80.39 1660.09 74.8889 1685.43 69.8062L1685.68 71.0509C1660.34 76.1323 1634.48 81.6321 1609.47 86.9521C1446.1 121.699 1277.16 157.63 1107.03 110.679C941.793 66.8837 805.031 -12.6512 660.239 -96.8566C632.128 -113.204 603.061 -130.108 573.902 -146.656C455.415 -211.565 307.777 -218.083 122.56 -166.581L122.221 -167.802Z" fill="#BBF451"/>
<path d="M140.232 -211.521C428.181 -295.936 688.389 -162.904 940.029 -34.2519C997.228 -5.00806 1056.37 25.2307 1114.23 51.9438C1281.45 130.209 1465.98 88.0964 1644.45 47.37C1661.86 43.3956 1679.87 39.2867 1697.33 35.4226L1697.61 36.6623C1680.15 40.5251 1662.14 44.6334 1644.73 48.6071C1557.07 68.6105 1466.43 89.297 1376.51 95.2381C1274.64 101.971 1188.67 88.1849 1113.7 53.0954C1055.82 26.373 996.662 -3.87131 939.452 -33.1208C688.033 -161.661 428.053 -294.577 140.589 -210.304L140.232 -211.521Z" fill="#BBF451"/>
<path d="M151.818 -247.324C318.325 -276.358 480.368 -274.685 633.445 -242.355C796.623 -207.892 946.468 -139.033 1078.82 -37.6921C1258.43 99.8986 1483.99 48.1454 1683.01 2.48512C1691.86 0.452672 1700.67 -1.56735 1709.42 -3.5595L1709.7 -2.32104C1700.95 -0.329505 1692.14 1.69179 1683.29 3.72237C1484.01 49.4459 1258.13 101.27 1078.05 -36.6835C819.963 -234.299 499.754 -306.704 152.036 -246.073L151.818 -247.324Z" fill="#BBF451"/>
<path d="M157.491 -278.814C210.227 -281.42 264.758 -286.287 317.494 -290.995C528.707 -309.85 747.112 -329.349 941.697 -217.152C981.732 -194.752 1018.09 -167.425 1053.25 -140.999C1107.47 -100.25 1158.67 -61.7609 1222.46 -39.4784C1382 15.3834 1549.36 -12.1405 1721.08 -47.866L1721.34 -46.6233C1646.02 -30.9545 1558.41 -13.8185 1471.84 -8.82508C1377.26 -3.36989 1295.55 -13.004 1222.05 -38.2797C1158.07 -60.6279 1106.79 -99.1743 1052.49 -139.984C1017.36 -166.386 981.039 -193.686 941.071 -216.049C746.826 -328.048 528.624 -308.569 317.607 -289.73C264.86 -285.022 210.317 -280.153 157.554 -277.546L157.491 -278.814Z" fill="#BBF451"/>
</g>
</svg>
